<svg width="409" height="101" viewBox="0 0 409 101" fill="none" xmlns="http://www.w3.org/2000/svg">
<line x1="0.739322" y1="97.5228" x2="408.739" y2="25.5228" stroke="#743434" stroke-width="3"/>
<path d="M10.3845 93.2819L6.34835 70.3619L9.12383 69.8731L12.7264 90.3311L23.3807 88.4549L23.8143 90.917L10.3845 93.2819ZM37.3493 81.2873L35.5598 71.1255L38.201 70.6604L41.2281 87.8504L38.5869 88.3156L38.0745 85.4058L37.8955 85.4373C37.6463 86.3812 37.1503 87.2339 36.4075 87.9955C35.6634 88.7496 34.6422 89.241 33.344 89.4696C32.2696 89.6588 31.2732 89.5919 30.3548 89.2691C29.4351 88.9387 28.6524 88.3381 28.0068 87.4672C27.3598 86.5888 26.9075 85.4184 26.65 83.9561L24.7265 73.0332L27.3677 72.5681L29.2596 83.3119C29.4804 84.5653 30.0071 85.5034 30.8398 86.126C31.68 86.7472 32.6485 86.9613 33.7452 86.7682C34.4018 86.6525 35.04 86.3671 35.6598 85.9118C36.2871 85.4552 36.7709 84.8392 37.1113 84.0639C37.4592 83.2872 37.5385 82.3617 37.3493 81.2873ZM46.0656 86.9986L43.0385 69.8085L45.6797 69.3434L48.7068 86.5335L46.0656 86.9986ZM43.8769 66.707C43.3621 66.7977 42.8873 66.7005 42.4525 66.4156C42.0252 66.1293 41.7682 65.7399 41.6815 65.2475C41.5947 64.7551 41.7033 64.3013 42.0071 63.8863C42.3184 63.4699 42.7315 63.2164 43.2463 63.1258C43.7611 63.0351 44.2322 63.1329 44.6595 63.4192C45.0943 63.7042 45.3551 64.0929 45.4418 64.5853C45.5285 65.0777 45.4162 65.5321 45.1049 65.9485C44.8011 66.3635 44.3917 66.6164 43.8769 66.707ZM63.3714 70.1972L61.1171 71.2865C60.8982 70.9173 60.6104 70.5718 60.2538 70.25C59.9033 69.9194 59.4601 69.6744 58.9243 69.5149C58.3885 69.3554 57.7364 69.3433 56.9679 69.4787C55.9159 69.6639 55.082 70.0608 54.466 70.6692C53.8563 71.2689 53.6164 71.9381 53.7465 72.6767C53.8621 73.3333 54.1922 73.8098 54.7367 74.1062C55.2812 74.4026 56.0831 74.5883 57.1425 74.6633L59.8045 74.8407C61.4071 74.9431 62.6529 75.3122 63.5418 75.948C64.4294 76.5763 64.9789 77.491 65.1904 78.6923C65.3639 79.6771 65.2354 80.6074 64.805 81.4832C64.3821 82.3577 63.7064 83.1074 62.778 83.7325C61.8496 84.3575 60.7177 84.7876 59.3821 85.0228C57.6288 85.3315 56.1107 85.2066 54.8277 84.6479C53.5447 84.0892 52.6214 83.1056 52.058 81.6972L54.4546 80.629C54.8562 81.5121 55.4298 82.1265 56.1753 82.4721C56.9282 82.8165 57.8456 82.8934 58.9275 82.7029C60.1585 82.4861 61.0899 82.0528 61.7217 81.4031C62.3595 80.7446 62.6135 80.0461 62.4834 79.3074C62.3783 78.7105 62.0813 78.2475 61.5926 77.9181C61.1025 77.5814 60.407 77.3885 59.506 77.3394L56.5228 77.1725C54.8828 77.0766 53.6246 76.7021 52.748 76.0487C51.8775 75.3866 51.3379 74.4624 51.129 73.2761C50.9582 72.3062 51.0794 71.4002 51.4926 70.5582C51.9134 69.7149 52.5601 68.9972 53.4327 68.405C54.3128 67.8116 55.3572 67.4085 56.5659 67.1956C58.267 66.896 59.6682 67.0339 60.7695 67.6092C61.8783 68.1832 62.7456 69.0458 63.3714 70.1972ZM79.2314 81.1581L75.1953 58.2381L88.9383 55.8179L89.3719 58.2801L78.4043 60.2114L79.7681 67.9559L89.7061 66.2058L90.1397 68.668L80.2017 70.418L82.0069 80.6694L79.2314 81.1581ZM103.378 77.2751C101.722 77.5668 100.229 77.4528 98.899 76.9332C97.5752 76.4048 96.4725 75.5374 95.5908 74.3311C94.7153 73.1161 94.1225 71.6281 93.8124 69.8674C93.5024 68.1066 93.5499 66.4982 93.955 65.0422C94.3663 63.5775 95.0839 62.3665 96.1076 61.4093C97.1375 60.4433 98.4284 59.8237 99.9803 59.5504C100.876 59.3928 101.786 59.3863 102.711 59.531C103.637 59.6757 104.517 60.0208 105.351 60.5661C106.185 61.104 106.91 61.8839 107.529 62.9058C108.147 63.9276 108.598 65.2406 108.88 66.8447L109.077 67.9639L95.8266 70.2973L95.4246 68.0142L105.989 66.1538C105.818 65.1839 105.472 64.3526 104.95 63.6599C104.436 62.9659 103.785 62.4612 102.999 62.1458C102.22 61.8291 101.353 61.7548 100.398 61.923C99.3461 62.1083 98.4818 62.5297 97.8053 63.1873C97.135 63.8361 96.6675 64.6107 96.403 65.5111C96.1385 66.4116 96.0897 67.3356 96.2565 68.2831L96.5246 69.8051C96.7532 71.1033 97.1708 72.1644 97.7774 72.9884C98.3902 73.8035 99.1409 74.3752 100.029 74.7033C100.917 75.024 101.894 75.0904 102.961 74.9025C103.655 74.7803 104.264 74.573 104.79 74.2805C105.321 73.9792 105.757 73.5947 106.098 73.127C106.437 72.6518 106.666 72.0961 106.785 71.4598L109.463 71.7267C109.347 72.6395 109.029 73.48 108.511 74.2482C107.991 75.009 107.297 75.6543 106.429 76.1841C105.559 76.7065 104.542 77.0702 103.378 77.2751ZM113.056 51.5709L117.092 74.491L114.451 74.9561L110.415 52.036L113.056 51.5709ZM121.93 73.6391L118.902 56.449L121.544 55.9839L124.571 73.174L121.93 73.6391ZM119.741 53.3475C119.226 53.4382 118.751 53.341 118.316 53.0561C117.889 52.7698 117.632 52.3804 117.545 51.888C117.459 51.3956 117.567 50.9418 117.871 50.5268C118.182 50.1104 118.595 49.8569 119.11 49.7663C119.625 49.6756 120.096 49.7734 120.523 50.0597C120.958 50.3447 121.219 50.7334 121.306 51.2258C121.392 51.7182 121.28 52.1726 120.969 52.589C120.665 53.004 120.256 53.2569 119.741 53.3475ZM130.543 78.7684L126.381 55.1321L128.933 54.6827L129.414 57.4134L129.727 57.3582C129.868 57.0256 130.07 56.5978 130.332 56.0748C130.6 55.543 131.026 55.0372 131.611 54.5573C132.202 54.0686 133.057 53.7257 134.176 53.5287C135.623 53.2738 136.963 53.411 138.194 53.9402C139.426 54.4695 140.468 55.3436 141.322 56.5626C142.175 57.7816 142.76 59.2939 143.078 61.0994C143.399 62.9199 143.367 64.5524 142.983 65.997C142.598 67.4341 141.921 68.6148 140.953 69.5391C139.983 70.456 138.783 71.0405 137.35 71.2928C136.246 71.4872 135.33 71.4601 134.601 71.2115C133.871 70.9554 133.286 70.6238 132.845 70.2168C132.403 69.8024 132.057 69.4556 131.808 69.1764L131.584 69.2158L133.185 78.3033L130.543 78.7684ZM130.491 63.2699C130.72 64.5681 131.112 65.6798 131.667 66.6051C132.221 67.5229 132.913 68.1973 133.742 68.6281C134.571 69.0514 135.515 69.1698 136.574 68.9833C137.678 68.7888 138.549 68.3356 139.185 67.6235C139.827 66.9027 140.247 66.0133 140.446 64.9553C140.65 63.8886 140.645 62.7434 140.429 61.5198C140.216 60.3111 139.838 59.2547 139.294 58.3504C138.756 57.4374 138.065 56.7631 137.219 56.3274C136.379 55.883 135.399 55.7594 134.28 55.9564C133.206 56.1456 132.351 56.5769 131.716 57.2503C131.079 57.9163 130.66 58.7671 130.457 59.8027C130.254 60.8308 130.265 61.9866 130.491 63.2699ZM155.883 68.0292C154.227 68.3208 152.734 68.2069 151.404 67.6872C150.08 67.1588 148.977 66.2914 148.095 65.0852C147.22 63.8701 146.627 62.3822 146.317 60.6214C146.007 58.8606 146.055 57.2522 146.46 55.7963C146.871 54.3315 147.588 53.1206 148.612 52.1633C149.642 51.1974 150.933 50.5777 152.485 50.3045C153.38 50.1468 154.291 50.1403 155.216 50.285C156.142 50.4298 157.022 50.7748 157.856 51.3201C158.689 51.858 159.415 52.6379 160.033 53.6598C160.652 54.6817 161.102 55.9947 161.385 57.5988L161.582 58.7179L148.331 61.0513L147.929 58.7683L158.494 56.9078C158.323 55.9379 157.977 55.1066 157.455 54.4139C156.94 53.7199 156.29 53.2152 155.503 52.8998C154.725 52.5831 153.858 52.5089 152.903 52.677C151.851 52.8623 150.986 53.2837 150.31 53.9413C149.64 54.5901 149.172 55.3648 148.908 56.2652C148.643 57.1656 148.594 58.0896 148.761 59.0371L149.029 60.5592C149.258 61.8574 149.675 62.9185 150.282 63.7424C150.895 64.5576 151.645 65.1292 152.534 65.4574C153.421 65.7781 154.398 65.8445 155.465 65.6566C156.159 65.5344 156.769 65.327 157.294 65.0345C157.826 64.7332 158.262 64.3487 158.603 63.881C158.942 63.4059 159.171 62.8501 159.29 62.2138L161.968 62.4808C161.851 63.3935 161.534 64.234 161.015 65.0023C160.496 65.7631 159.802 66.4084 158.933 66.9382C158.064 67.4605 157.047 67.8242 155.883 68.0292ZM189.07 45.5695C188.691 44.8593 188.248 44.2413 187.74 43.7153C187.238 43.1806 186.674 42.7492 186.047 42.4212C185.427 42.0918 184.751 41.8763 184.018 41.7747C183.284 41.6731 182.503 41.6952 181.675 41.841C180.317 42.0801 179.144 42.6482 178.156 43.5453C177.168 44.4424 176.466 45.6314 176.05 47.1124C175.634 48.5934 175.6 50.3262 175.95 52.3108C176.299 54.2954 176.926 55.9119 177.831 57.1604C178.735 58.4088 179.816 59.2838 181.074 59.7854C182.331 60.2871 183.669 60.413 185.086 60.1634C186.4 59.9322 187.507 59.4487 188.408 58.7131C189.315 57.9687 189.958 57.0324 190.336 55.9043C190.721 54.7674 190.79 53.4976 190.543 52.0949L191.425 52.1242L184.531 53.3382L184.097 50.8761L192.826 49.3389L193.26 51.801C193.592 53.6886 193.479 55.401 192.919 56.938C192.366 58.4738 191.452 59.7501 190.177 60.7669C188.909 61.7749 187.364 62.4392 185.544 62.7598C183.514 63.1172 181.647 62.9537 179.942 62.2694C178.244 61.5837 176.811 60.436 175.643 58.8263C174.483 57.2153 173.69 55.2011 173.264 52.7838C172.945 50.9708 172.9 49.2979 173.13 47.765C173.366 46.2234 173.842 44.8627 174.557 43.6829C175.273 42.5031 176.194 41.5331 177.322 40.773C178.45 40.0129 179.748 39.5034 181.218 39.2446C182.427 39.0317 183.586 39.0161 184.694 39.1978C185.81 39.3707 186.836 39.7168 187.774 40.2363C188.717 40.7471 189.546 41.4127 190.26 42.2331C190.972 43.0461 191.531 43.9901 191.935 45.065L189.07 45.5695ZM206.287 59.1532C204.735 59.4265 203.308 59.297 202.007 58.7646C200.713 58.2309 199.62 57.3579 198.73 56.1454C197.847 54.9317 197.249 53.437 196.936 51.6613C196.621 49.8706 196.67 48.2504 197.084 46.8006C197.506 45.3495 198.233 44.1521 199.267 43.2085C200.308 42.2636 201.605 41.6545 203.157 41.3812C204.709 41.1079 206.132 41.2381 207.426 41.7718C208.727 42.3042 209.82 43.1809 210.704 44.4021C211.596 45.622 212.2 47.1273 212.515 48.9179C212.828 50.6936 212.773 52.3033 212.35 53.747C211.935 55.1893 211.206 56.383 210.165 57.3279C209.131 58.2715 207.838 58.8799 206.287 59.1532ZM205.869 56.7806C207.048 56.573 207.964 56.1001 208.619 55.3617C209.273 54.6234 209.697 53.7296 209.889 52.6803C210.081 51.6311 210.076 50.532 209.874 49.383C209.671 48.234 209.3 47.1956 208.76 46.2677C208.219 45.3397 207.515 44.6369 206.646 44.1591C205.777 43.6813 204.754 43.5462 203.575 43.7538C202.396 43.9614 201.48 44.4381 200.827 45.1839C200.173 45.9297 199.751 46.831 199.56 47.8876C199.37 48.9443 199.375 50.0472 199.578 51.1962C199.78 52.3451 200.151 53.3799 200.69 54.3003C201.229 55.2208 201.932 55.9162 202.799 56.3865C203.667 56.8568 204.69 56.9882 205.869 56.7806ZM218.865 45.9074L220.686 56.2483L218.044 56.7134L215.017 39.5234L217.569 39.0741L218.042 41.76L218.266 41.7206C218.515 40.7767 219.003 39.9676 219.731 39.2934C220.457 38.6117 221.469 38.1565 222.767 37.9279C223.931 37.7229 224.991 37.7823 225.948 38.1061C226.904 38.4224 227.709 39.0191 228.364 39.8962C229.017 40.7658 229.472 41.9318 229.73 43.3941L231.653 54.317L229.012 54.7821L227.12 44.0383C226.882 42.6879 226.346 41.6976 225.512 41.0676C224.677 40.43 223.647 40.219 222.424 40.4345C221.581 40.583 220.859 40.8985 220.26 41.381C219.668 41.8622 219.243 42.4869 218.986 43.2553C218.729 44.0236 218.689 44.9077 218.865 45.9074ZM244.616 59.0496C243.341 59.2742 242.215 59.3032 241.239 59.1365C240.265 58.9773 239.426 58.6867 238.721 58.2647C238.024 57.8489 237.444 57.3741 236.981 56.8402L238.825 54.9925C239.119 55.2638 239.484 55.5687 239.921 55.9072C240.359 56.2532 240.921 56.5196 241.608 56.7063C242.303 56.8992 243.169 56.9044 244.207 56.7217C245.594 56.4774 246.68 55.9399 247.465 55.1095C248.249 54.279 248.516 53.1475 248.263 51.715L247.648 48.2233L247.425 48.2627C247.286 48.6102 247.078 49.0468 246.801 49.5725C246.531 50.0893 246.095 50.5853 245.494 51.0604C244.899 51.5266 244.042 51.8583 242.923 52.0554C241.536 52.2998 240.232 52.1909 239.012 51.7288C237.8 51.2654 236.762 50.4634 235.9 49.323C235.045 48.1812 234.46 46.715 234.144 44.9244C233.834 43.1636 233.874 41.5759 234.263 40.1611C234.651 38.739 235.334 37.5725 236.312 36.6618C237.289 35.7437 238.501 35.1571 239.949 34.9022C241.068 34.7052 241.989 34.7353 242.711 34.9928C243.439 35.2414 244.02 35.5699 244.454 35.9782C244.893 36.3777 245.236 36.7096 245.483 36.9739L245.751 36.9266L245.271 34.1958L247.822 33.7465L250.936 51.429C251.196 52.9062 251.072 54.1666 250.563 55.21C250.064 56.2595 249.289 57.0999 248.238 57.731C247.196 58.3683 245.989 58.8078 244.616 59.0496ZM242.864 49.6197C243.923 49.4332 244.776 49.033 245.421 48.4193C246.067 47.8056 246.5 47.0101 246.72 46.0329C246.941 45.0556 246.939 43.9328 246.716 42.6645C246.498 41.4259 246.119 40.3658 245.579 39.4839C245.039 38.6021 244.356 37.9569 243.53 37.5485C242.704 37.1401 241.754 37.0304 240.68 37.2196C239.561 37.4167 238.678 37.8645 238.032 38.5629C237.393 39.26 236.971 40.1189 236.766 41.1396C236.569 42.159 236.573 43.2506 236.778 44.4145C236.988 45.6083 237.36 46.6312 237.895 47.4832C238.436 48.3264 239.122 48.9441 239.952 49.3363C240.789 49.7197 241.759 49.8142 242.864 49.6197ZM262.731 49.2135C261.179 49.4868 259.752 49.3573 258.451 48.8249C257.157 48.2912 256.064 47.4182 255.174 46.2058C254.291 44.992 253.693 43.4973 253.38 41.7216C253.065 39.9309 253.114 38.3107 253.528 36.8609C253.95 35.4098 254.677 34.2124 255.711 33.2688C256.752 32.3239 258.049 31.7148 259.601 31.4415C261.153 31.1682 262.576 31.2984 263.87 31.8321C265.171 32.3645 266.264 33.2413 267.148 34.4625C268.04 35.6823 268.644 37.1876 268.959 38.9782C269.272 40.7539 269.217 42.3636 268.794 43.8073C268.379 45.2497 267.65 46.4433 266.609 47.3882C265.575 48.3318 264.282 48.9402 262.731 49.2135ZM262.313 46.8409C263.492 46.6334 264.408 46.1604 265.063 45.422C265.717 44.6837 266.141 43.7899 266.333 42.7407C266.525 41.6914 266.52 40.5923 266.318 39.4433C266.115 38.2944 265.744 37.2559 265.204 36.328C264.663 35.4 263.959 34.6972 263.09 34.2194C262.221 33.7416 261.198 33.6065 260.019 33.8141C258.84 34.0217 257.924 34.4984 257.271 35.2442C256.617 35.99 256.195 36.8913 256.004 37.948C255.814 39.0046 255.819 40.1075 256.022 41.2565C256.224 42.4055 256.595 43.4402 257.134 44.3607C257.673 45.2811 258.376 45.9765 259.243 46.4468C260.111 46.9172 261.134 47.0485 262.313 46.8409ZM274.488 46.7738L271.461 29.5837L274.013 29.1344L274.47 31.7308L274.649 31.6992C274.813 30.7935 275.258 30.0035 275.986 29.3293C276.713 28.655 277.592 28.2272 278.621 28.0459C278.815 28.0118 279.058 27.9728 279.351 27.929C279.643 27.8852 279.865 27.8577 280.017 27.8463L280.49 30.5323C280.396 30.5256 280.185 30.5282 279.857 30.5399C279.534 30.5429 279.197 30.5752 278.847 30.637C278.011 30.7841 277.296 31.0909 276.701 31.5571C276.112 32.0147 275.682 32.5828 275.409 33.2616C275.142 33.9316 275.077 34.6546 275.214 35.4306L277.13 46.3086L274.488 46.7738ZM291.344 44.221C290.254 44.4128 289.23 44.3817 288.27 44.1277C287.308 43.8662 286.497 43.3898 285.837 42.6983C285.176 41.9994 284.746 41.0904 284.549 39.9713C284.376 38.9864 284.429 38.154 284.709 37.4738C284.988 36.7863 285.421 36.21 286.009 35.745C286.596 35.28 287.266 34.8928 288.02 34.5832C288.779 34.2649 289.549 33.9832 290.329 33.7382C291.349 33.4199 292.178 33.1701 292.816 32.9886C293.459 32.7984 293.915 32.5912 294.183 32.3671C294.459 32.1416 294.559 31.8162 294.484 31.3909L294.469 31.3014C294.274 30.1972 293.821 29.3924 293.109 28.887C292.404 28.3803 291.444 28.2341 290.228 28.4482C288.967 28.6703 288.027 29.1204 287.408 29.7986C286.789 30.4769 286.389 31.155 286.208 31.8329L283.544 31.3791C283.808 30.2557 284.261 29.3374 284.905 28.624C285.555 27.9019 286.303 27.347 287.15 26.9594C288.003 26.563 288.863 26.2886 289.728 26.1362C290.28 26.0389 290.926 25.9944 291.666 26.0026C292.412 26.002 293.157 26.144 293.899 26.4286C294.649 26.712 295.319 27.2208 295.91 27.9552C296.501 28.6897 296.917 29.7395 297.157 31.1049L299.152 42.4306L296.51 42.8957L296.1 40.5679L295.966 40.5916C295.853 40.9961 295.625 41.4479 295.282 41.9467C294.939 42.4456 294.447 42.9053 293.805 43.3259C293.164 43.7466 292.343 44.0449 291.344 44.221ZM291.329 41.7774C292.373 41.5935 293.218 41.2333 293.862 40.6968C294.513 40.159 294.964 39.5333 295.216 38.8199C295.474 38.1051 295.541 37.3895 295.415 36.6733L294.989 34.2559C294.901 34.4099 294.676 34.5764 294.315 34.7553C293.961 34.9255 293.544 35.0949 293.066 35.2637C292.595 35.4237 292.133 35.5743 291.681 35.7155C291.235 35.8478 290.873 35.9576 290.596 36.0449C289.926 36.2553 289.31 36.5138 288.748 36.8203C288.193 37.1181 287.767 37.4969 287.471 37.9567C287.182 38.4077 287.096 38.969 287.214 39.6405C287.376 40.5582 287.837 41.1923 288.599 41.5427C289.367 41.8844 290.277 41.9627 291.329 41.7774ZM326.087 21.4411C325.708 20.7309 325.265 20.1129 324.757 19.5869C324.255 19.0522 323.69 18.6209 323.063 18.2928C322.444 17.9634 321.768 17.7479 321.034 17.6463C320.301 17.5447 319.52 17.5668 318.692 17.7126C317.334 17.9517 316.161 18.5198 315.173 19.4169C314.185 20.314 313.483 21.5031 313.067 22.984C312.65 24.465 312.617 26.1978 312.967 28.1824C313.316 30.167 313.943 31.7836 314.847 33.032C315.752 34.2804 316.833 35.1554 318.091 35.657C319.348 36.1587 320.686 36.2847 322.103 36.035C323.416 35.8038 324.524 35.3204 325.425 34.5847C326.332 33.8403 326.975 32.904 327.353 31.7759C327.738 30.639 327.806 29.3692 327.559 27.9665L328.441 27.9958L321.547 29.2098L321.114 26.7477L329.843 25.2105L330.277 27.6726C330.609 29.5602 330.495 31.2726 329.935 32.8097C329.383 34.3454 328.469 35.6217 327.194 36.6385C325.925 37.6466 324.381 38.3109 322.56 38.6314C320.531 38.9888 318.664 38.8253 316.959 38.141C315.261 37.4553 313.828 36.3076 312.66 34.6979C311.499 33.0869 310.706 31.0728 310.281 28.6554C309.961 26.8424 309.917 25.1695 310.147 23.6366C310.383 22.095 310.859 20.7343 311.574 19.5545C312.289 18.3747 313.211 17.4047 314.339 16.6446C315.466 15.8845 316.765 15.375 318.235 15.1162C319.444 14.9033 320.602 14.8877 321.711 15.0694C322.826 15.2423 323.853 15.5884 324.79 16.1079C325.734 16.6187 326.563 17.2843 327.277 18.1047C327.989 18.9178 328.547 19.8617 328.952 20.9366L326.087 21.4411ZM341.386 35.4086C340.297 35.6004 339.272 35.5693 338.312 35.3153C337.351 35.0538 336.54 34.5774 335.88 33.886C335.218 33.1871 334.789 32.278 334.592 31.1589C334.418 30.1741 334.472 29.3416 334.752 28.6615C335.031 27.9739 335.464 27.3976 336.051 26.9326C336.639 26.4677 337.309 26.0804 338.062 25.7708C338.821 25.4525 339.591 25.1708 340.371 24.9258C341.392 24.6075 342.221 24.3577 342.858 24.1762C343.502 23.986 343.957 23.7788 344.226 23.5547C344.501 23.3292 344.602 23.0038 344.527 22.5785L344.511 22.489C344.317 21.3848 343.863 20.58 343.151 20.0746C342.447 19.5679 341.486 19.4217 340.27 19.6358C339.009 19.8579 338.069 20.308 337.45 20.9862C336.831 21.6645 336.431 22.3426 336.251 23.0206L333.586 22.5667C333.85 21.4433 334.304 20.525 334.947 19.8116C335.597 19.0895 336.346 18.5346 337.193 18.147C338.046 17.7506 338.905 17.4762 339.771 17.3238C340.323 17.2265 340.969 17.182 341.709 17.1902C342.455 17.1896 343.199 17.3316 343.942 17.6162C344.691 17.8996 345.362 18.4084 345.953 19.1429C346.544 19.8773 346.959 20.9271 347.2 22.2925L349.194 33.6182L346.553 34.0833L346.143 31.7555L346.009 31.7792C345.895 32.1838 345.667 32.6355 345.324 33.1343C344.981 33.6332 344.489 34.0929 343.848 34.5135C343.207 34.9342 342.386 35.2325 341.386 35.4086ZM341.371 32.965C342.416 32.7811 343.26 32.4209 343.904 31.8844C344.556 31.3466 345.007 30.721 345.258 30.0075C345.517 29.2927 345.583 28.5772 345.457 27.8609L345.031 25.4436C344.943 25.5976 344.719 25.764 344.358 25.9429C344.003 26.1131 343.587 26.2826 343.109 26.4513C342.637 26.6114 342.175 26.7619 341.723 26.9031C341.277 27.0354 340.916 27.1453 340.639 27.2325C339.968 27.4429 339.352 27.7014 338.791 28.0079C338.235 28.3057 337.81 28.6845 337.514 29.1443C337.224 29.5953 337.138 30.1566 337.257 30.8281C337.418 31.7458 337.88 32.3799 338.642 32.7304C339.409 33.0721 340.319 33.1503 341.371 32.965ZM354.015 32.7693L350.988 15.5793L353.539 15.1299L353.997 17.7263L354.176 17.6948C354.339 16.7891 354.785 15.9991 355.512 15.3248C356.239 14.6506 357.118 14.2228 358.148 14.0415C358.342 14.0073 358.585 13.9684 358.877 13.9246C359.169 13.8808 359.391 13.8532 359.543 13.8419L360.016 16.5278C359.923 16.5212 359.712 16.5238 359.383 16.5355C359.06 16.5384 358.724 16.5708 358.373 16.6326C357.538 16.7797 356.822 17.0864 356.227 17.5527C355.639 18.0102 355.208 18.5784 354.935 19.2572C354.669 19.9272 354.604 20.6502 354.74 21.4261L356.656 32.3042L354.015 32.7693ZM372.264 29.9249C370.652 30.2087 369.198 30.0726 367.9 29.5165C366.602 28.9605 365.522 28.0699 364.66 26.8447C363.798 25.6196 363.216 24.149 362.914 22.433C362.606 20.6871 362.656 19.0899 363.062 17.6414C363.475 16.1841 364.193 14.9769 365.217 14.0197C366.247 13.0537 367.538 12.4341 369.09 12.1608C370.298 11.9479 371.427 11.98 372.476 12.2568C373.524 12.5337 374.429 13.0205 375.191 13.7172C375.952 14.4139 376.501 15.2863 376.84 16.3344L374.199 16.7995C373.859 16.0516 373.289 15.4366 372.489 14.9544C371.695 14.4635 370.716 14.3205 369.552 14.5255C368.522 14.7068 367.667 15.1344 366.986 15.8082C366.31 16.4733 365.842 17.3289 365.58 18.375C365.324 19.4123 365.311 20.5801 365.539 21.8783C365.773 23.2064 366.186 24.326 366.777 25.2373C367.376 26.1473 368.107 26.8069 368.972 27.2162C369.843 27.6242 370.802 27.7363 371.846 27.5523C372.533 27.4314 373.134 27.2024 373.652 26.8651C374.17 26.5278 374.583 26.1012 374.892 25.5852C375.201 25.0692 375.383 24.4834 375.436 23.8278L378.078 23.3627C378.107 24.4036 377.899 25.3826 377.452 26.2997C377.012 27.2079 376.353 27.9856 375.475 28.6326C374.603 29.2708 373.532 29.7016 372.264 29.9249ZM382.822 27.6965L379.794 10.5065L382.436 10.0414L385.463 27.2314L382.822 27.6965ZM380.633 7.40496C380.118 7.49561 379.643 7.39845 379.208 7.11348C378.781 6.8272 378.524 6.43784 378.437 5.94542C378.351 5.453 378.459 4.99926 378.763 4.58422C379.074 4.16786 379.487 3.91435 380.002 3.8237C380.517 3.73304 380.988 3.83085 381.415 4.11714C381.85 4.40211 382.111 4.79081 382.198 5.28323C382.284 5.77566 382.172 6.23005 381.861 6.6464C381.557 7.06145 381.148 7.3143 380.633 7.40496ZM395.43 25.8916C394.34 26.0834 393.316 26.0523 392.356 25.7983C391.394 25.5369 390.583 25.0604 389.923 24.369C389.262 23.6701 388.832 22.7611 388.635 21.642C388.462 20.6571 388.515 19.8246 388.795 19.1445C389.074 18.4569 389.507 17.8806 390.095 17.4157C390.682 16.9507 391.352 16.5634 392.106 16.2539C392.865 15.9356 393.635 15.6539 394.414 15.4088C395.435 15.0906 396.264 14.8407 396.902 14.6593C397.545 14.4691 398.001 14.2619 398.269 14.0377C398.545 13.8122 398.645 13.4869 398.57 13.0616L398.555 12.9721C398.36 11.8678 397.907 11.063 397.195 10.5577C396.49 10.051 395.53 9.90472 394.314 10.1189C393.053 10.3409 392.113 10.7911 391.494 11.4693C390.875 12.1475 390.475 12.8256 390.294 13.5036L387.63 13.0497C387.893 11.9264 388.347 11.008 388.991 10.2947C389.641 9.57257 390.389 9.01769 391.236 8.63006C392.089 8.23364 392.949 7.95923 393.814 7.80682C394.366 7.7096 395.012 7.66507 395.752 7.67323C396.498 7.67263 397.243 7.81464 397.985 8.09929C398.735 8.38262 399.405 8.89149 399.996 9.6259C400.587 10.3603 401.003 11.4102 401.243 12.7756L403.237 24.1013L400.596 24.5664L400.186 22.2386L400.052 22.2622C399.939 22.6668 399.711 23.1185 399.368 23.6174C399.025 24.1162 398.533 24.576 397.891 24.9966C397.25 25.4172 396.429 25.7156 395.43 25.8916ZM395.415 23.4481C396.459 23.2641 397.304 22.9039 397.948 22.3674C398.599 21.8297 399.05 21.204 399.302 20.4905C399.56 19.7757 399.627 19.0602 399.501 18.344L399.075 15.9266C398.987 16.0806 398.762 16.2471 398.401 16.426C398.047 16.5961 397.63 16.7656 397.152 16.9344C396.681 17.0944 396.219 17.245 395.766 17.3861C395.321 17.5185 394.959 17.6283 394.682 17.7155C394.012 17.9259 393.396 18.1844 392.834 18.491C392.279 18.7888 391.853 19.1676 391.557 19.6274C391.268 20.0784 391.182 20.6397 391.3 21.3111C391.462 22.2288 391.923 22.8629 392.685 23.2134C393.453 23.5551 394.363 23.6333 395.415 23.4481Z" fill="black"/>
</svg>
